<svg xmlns="http://www.w3.org/2000/svg" viewBox="0 0 24 24">
  <path d="M12 8a4 4 0 1 1 0 8 4 4 0 0 1 0-8zm8.94 3A7.94 7.94 0 0 0 19 10h2a1 1 0 0 0 0-2h-2.06A7.94 7.94 0 0 0 17 5.06V3a1 1 0 0 0-2 0v2.06A7.94 7.94 0 0 0 12 4V2a1 1 0 0 0-2 0v2a7.94 7.94 0 0 0-3 1.06V3a1 1 0 0 0-2 0v2.06A7.94 7.94 0 0 0 3.06 8H1a1 1 0 0 0 0 2h2.06A7.94 7.94 0 0 0 5 13v2a7.94 7.94 0 0 0-1.94 3H1a1 1 0 0 0 0 2h2.06A7.94 7.94 0 0 0 7 19v2a1 1 0 0 0 2 0v-2.06A7.94 7.94 0 0 0 12 20v2a1 1 0 0 0 2 0v-2a7.94 7.94 0 0 0 3-1.94V21a1 1 0 0 0 2 0v-2.06A7.94 7.94 0 0 0 19 15v-2z" fill="currentColor"/>
</svg>
